<?xml version="1.0" encoding="UTF-8"?>
<svg xmlns="http://www.w3.org/2000/svg" viewBox="0 0 48 48" width="48" height="48">
  <!-- 깔끔한 톱니바퀴 (8개 두꺼운 톱니, 검정 아웃라인) -->
  <defs>
    <style>
      .gear-body {
        fill: #666666;
        stroke: #000000;
        stroke-width: 1.5;
        stroke-linejoin: miter;
      }
      .gear-hole {
        fill: #FFFFFF;
        stroke: #000000;
        stroke-width: 1.5;
      }
    </style>
  </defs>

  <!-- 톱니바퀴 본체 (8개 톱니 - 정확한 좌표) -->
  <path class="gear-body" d="
    M 24,4
    L 28,4
    L 28,9
    L 30,11
    L 33,11
    L 35,13
    L 37,13
    L 39,15
    L 39,17
    L 44,17
    L 44,21
    L 39,21
    L 39,23
    L 37,25
    L 37,27
    L 35,29
    L 33,29
    L 31,31
    L 31,33
    L 29,35
    L 27,35
    L 25,37
    L 25,39
    L 27,39
    L 27,44
    L 21,44
    L 21,39
    L 23,39
    L 23,37
    L 21,35
    L 19,35
    L 17,33
    L 17,31
    L 15,29
    L 13,29
    L 11,27
    L 11,25
    L 9,23
    L 9,21
    L 4,21
    L 4,17
    L 9,17
    L 9,15
    L 11,13
    L 13,13
    L 15,11
    L 17,11
    L 19,9
    L 20,9
    L 20,4
    Z
  "/>

  <!-- 중앙 구멍 -->
  <circle cx="24" cy="24" r="7" class="gear-hole"/>
</svg>
